<svg width="160pt" height="160pt" version="1.0" viewBox="0 0 160 160" xmlns="http://www.w3.org/2000/svg">
 <path transform="scale(.75)" d="m145.28 138.15c-0.63997-0.12287-3.0336-0.71597-5.3192-1.318-6.7893-1.7884-9.8118-2.2297-14.046-2.0512-3.0217 0.12745-5.5334 0.54002-10.354 1.7008-4.1579 1.0011-6.4511 1.3988-8.0754 1.4003-1.5942 1e-3 -4.196-0.42228-8.1664-1.33-4.624-1.0572-5.7804-1.2644-8.3948-1.504-2.6421-0.24216-5.4417-0.12161-9.7528 0.41995-10.225 1.2845-14.757 0.80989-26.821-2.8088-7.5226-2.2565-9.3088-3.1912-9.51-4.9764-0.16627-1.4752 0.19035-1.9367 1.818-2.3527 2.2994-0.58778 8.4043-0.82145 28.391-1.0867 7.6338-0.10131 13.906-0.21051 13.938-0.24267 0.10217-0.10217 3.1701-8.575 3.7006-10.22 1.0242-3.176 1.3913-5.5728 0.9143-5.9687-0.71822-0.59607-8.4982-1.9353-27.612-4.7531-14.213-2.0953-23.267-3.6681-27.306-4.7435-4.4328-1.1801-6.8494-2.6339-7.8446-4.7193-2.9373-6.1545-10.894-34.806-11.027-39.71l-0.03226-1.1851 0.6649-0.24678c0.52298-0.19411 1.5874-0.24823 4.9868-0.25355 4.4605-7e-3 6.5169 0.17255 8.1229 0.7092 0.76471 0.25552 0.92351 0.40355 1.7285 1.6112 1.0344 1.5519 3.7236 6.9293 5.7773 11.553 3.6917 8.311 5.6643 11.159 8.7465 12.628 2.1621 1.0307 3.6823 1.2304 8.4543 1.1104 9.773-0.24581 15.39-1.4133 24.934-5.1823 9.3908-3.7086 20.421-7.1773 32.192-10.123 15.044-3.7653 20.536-4.246 26.369-2.3082 1.0053 0.33395 2.8079 1.118 4.0058 1.7423 5.2345 2.7281 7.743 3.751 12.225 4.9848 7.1267 1.9621 13.868 2.9333 21.411 3.0848l4.6959 0.09429 1e-3 -8.7088c2e-3 -10.526 0.25594-14.847 0.92476-15.721 0.20136-0.26317 0.25273-0.26994 0.39983-0.05263 0.67685 0.99985 0.99532 4.4965 1.1658 12.799 0.15404 7.5028 0.26304 8.7536 0.90038 10.332 0.47999 1.1886 0.75782 1.5135 3.0333 3.548 1.0226 0.91424 1.8652 1.7146 1.8725 1.7786 7e-3 0.06397-0.77221 0.65098-1.7322 1.3045-2.6715 1.8185-3.2696 2.6676-3.7458 5.318-0.0897 0.49915-0.23469 4.5354-0.32223 8.9695-0.15339 7.7686-0.27977 10.036-0.68312 12.254-0.22106 1.2155-0.41471 1.4418-0.99001 1.1569-0.63007-0.31204-1.2793-1.698-1.5663-3.3439-0.33547-1.9237-0.33114-6.0128 0.0105-9.9261 0.29156-3.3396 0.25341-8.3757-0.0694-9.158-0.11187-0.27116-0.31655-0.45712-0.50311-0.45712-0.82659 0-4.0938 4.0775-8.2797 10.333-2.8238 4.22-4.95 7.09-6.5302 8.8144-0.7981 0.87094-1.2253 1.1897-1.9692 1.4695-1.6506 0.62075-4.4339 1.2945-10.318 2.4979-6.3204 1.2925-7.6282 1.6573-8.3463 2.3282-0.40983 0.38284-0.48694 0.58307-0.48567 1.2611 4e-3 1.9788 1.401 6.6313 3.5942 11.967l1.308 3.1822 17.371 0.0835c17.347 0.0834 19.904 0.16356 22.676 0.71057 1.7544 0.34627 2.4806 0.73958 2.999 1.6241 0.7641 1.3038 0.56633 1.7885-1.5527 3.805-3.4389 3.2726-6.5559 4.6746-11.406 5.1305-2.1558 0.20261-5.0337 0.12218-9.6411-0.26947-3.3001-0.28053-7.0255-0.31099-9.1424-0.0748-2.2151 0.24719-3.8122 0.59627-7.2308 1.5805-1.6914 0.48694-3.711 1.0485-4.4881 1.248-1.7641 0.4528-4.4632 0.5689-6.0672 0.26097zm-7.0646-14.379c4.1069-0.21517 7.226-0.47562 7.8988-0.65959 0.47649-0.13028 0.49492-0.17072 0.47811-1.0489-0.0447-2.3382-3.2362-10.113-5.3047-12.923-0.834-1.1329-1.0696-1.2372-3.5709-1.5806-7.4447-1.022-28.635-1.2746-35.157-0.41908-1.9092 0.25044-2.6643 0.67385-3.5416 1.9858-1.1665 1.7444-2.6762 5.0293-3.8579 8.3944-0.68441 1.9489-1.9922 6.1442-1.9922 6.3908 0 0.17206 3.9749 0.19603 20.82 0.12555 11.451-0.0479 22.353-0.16744 24.227-0.26563zm-8.7802-42.545c1.342-0.06243 2.4926-0.1661 2.5569-0.23039 0.15918-0.15919-2.5914-7.6175-3.5818-9.7126-1.9667-4.1597-4.0236-4.8634-10.558-3.6119-2.4782 0.47468-11.502 2.7448-14.462 3.6381-6.0164 1.816-9.3409 3.4571-10.367 5.1177-0.6905 1.1173-0.26351 2.9325 0.84894 3.609 0.9342 0.56812 3.3019 0.94816 7.1567 1.1487 3.144 0.16359 25.091 0.19549 28.406 0.0413zm17.923-0.46476c1.049-0.47685 1.732-1.0987 2.6629-2.4243 1.0126-1.4419 1.837-3.4037 1.9489-4.6375 0.0711-0.78424 0.0227-1.053-0.27724-1.5383-1.6238-2.6273-10.24-7.2654-15.033-8.0926-0.62729-0.10825-1.7432-0.16194-2.4797-0.1193-1.2207 0.07066-1.3753 0.11954-1.7476 0.55237-0.37275 0.43334-0.3996 0.57-0.30722 1.5635 0.14947 1.6074 1.036 5.9924 1.6085 7.9562 0.71611 2.4564 1.3922 3.7594 2.5679 4.949 1.6412 1.6606 3.7966 2.2474 7.9815 2.1726 1.9303-0.03448 2.4547-0.09956 3.0752-0.38161z" fill="#fff" fill-rule="evenodd" stroke-width=".16622"/>
 <path transform="scale(.75)" d="m64.994 166.19c-0.97658-0.12532-2.6959-0.55102-5.2248-1.2936-4.9981-1.4677-8.2934-1.9171-14.059-1.9171-5.4678 0-9.3215 0.42279-16.639 1.8255-1.9094 0.36599-3.5286 0.66599-3.5982 0.66666-0.06964 6.8e-4 -0.10704-2.8959-0.08311-6.4368l0.04351-6.438 4.2387-1.3627c6.9453-2.2329 9.8542-2.8395 14.381-2.999 4.2618-0.15022 7.2964 0.3162 11.778 1.8103 4.9264 1.6422 8.6666 2.1878 12.523 1.8266 2.8207-0.26418 4.8369-0.76995 8.6332-2.1657 4.6608-1.7135 5.6297-1.9317 8.5361-1.9224 2.9189 9e-3 5.0006 0.4111 11.944 2.3048 6.1826 1.6862 6.8803 1.8234 9.2498 1.8186 2.2884-5e-3 2.662-0.0725 7.7295-1.4044 6.7282-1.7684 8.7353-2.0643 13.172-1.9422 3.5276 0.0971 4.9817 0.32836 11.097 1.7647 5.5489 1.3033 7.0105 1.5459 9.3086 1.545 2.1263-8.7e-4 2.9516-0.15082 6.9815-1.2684 9.3732-2.5995 16.082-2.8886 23.397-1.0082 0.89088 0.229 3.3776 0.96373 5.5261 1.6327l3.9063 1.2164 0.0434 6.7643c0.0239 3.7204 7e-3 6.7643-0.0373 6.7643-0.0444 0-3.2056-0.77852-7.0249-1.73-8.7542-2.181-9.6142-2.3277-12.988-2.2162-3.046 0.10066-4.9997 0.47521-12.158 2.3308l-4.5712 1.185-2.992 1e-3c-3.5906 2e-3 -3.4095 0.037-13.55-2.657l-7.2337-1.9217-7.6435 2.186c-8.9935 2.5722-10.798 2.989-12.922 2.9856-1.8191-3e-3 -2.6378-0.18226-6.8039-1.4904-6.0199-1.8903-9.4626-2.4253-14.68-2.2815-4.7393 0.13063-7.5652 0.67327-13.215 2.5376-3.7315 1.2314-5.2936 1.5164-7.0646 1.2892z" fill="#fff" fill-rule="evenodd" stroke-width=".16622"/>
</svg>
